<?xml version="1.0" encoding="utf-8"?>
<!-- Generator: Adobe Illustrator 27.1.1, SVG Export Plug-In . SVG Version: 6.00 Build 0)  -->
<svg version="1.1" id="Layer_1" xmlns="http://www.w3.org/2000/svg" xmlns:xlink="http://www.w3.org/1999/xlink" x="0px" y="0px"
	 viewBox="0 0 3600 3600" style="enable-background:new 0 0 3600 3600;" xml:space="preserve">
<style type="text/css">
	.st0{fill:none;stroke:#231F20;stroke-width:8.6084;stroke-miterlimit:10;}
	.st1{fill:#1BA2DC;}
	.st2{fill:#1E2655;}
	.st3{fill:#0DA4D9;}
</style>
<g>
	<path class="st0" d="M1505.16,2313.9"/>
	<g>
		<circle class="st1" cx="254.96" cy="2098.69" r="47.35"/>
		<circle class="st1" cx="3349.65" cy="2106.99" r="47.35"/>
		<path class="st2" d="M351.04,2270.6c75.88-6.22,155.39-12.05,234.76-19.39c214.72-19.86,423.29-66.55,623.15-148.47
			c147.7-60.54,285.07-139.24,405.52-244.99c51.77-45.45,101.95-94.1,127.33-159.83c13.3-34.44,22.62-72.81,22.93-109.5
			c2.06-241.01,1.57-482.06,0.64-723.08c-0.1-25.37,7.59-32.04,31.68-31.1c51.99,2.02,41.77-2.7,41.82,43.26
			c0.23,226.4,2.64,452.84-1.31,679.17c-1.75,100.57,35.15,180.49,101.58,250.27c102.12,107.28,225.4,184.99,356.96,250.2
			c190.77,94.55,393.32,150.68,603.71,178.12c117.32,15.3,235.34,25.32,344.07,36.77c-21.02,1.04-51.71,3.57-82.43,3.9
			c-208.45,2.19-415.1-13.71-617.68-66.03c-193.22-49.9-375.31-125.4-538.29-242.39c-78.48-56.33-151.3-119.07-201.34-207.85
			c-15.22,20.92-28.14,40.8-43.14,58.97c-92.57,112.15-210.61,191.26-338.55,256.22c-193.82,98.42-400.04,156.15-615.47,182.36
			c-133.3,16.22-266.99,22.34-401.16,17.93C386.23,2274.5,366.7,2271.94,351.04,2270.6z"/>
		<path class="st1" d="M1802.79,2005.23c-320.43,255.83-696.97,341.17-1094.42,362.82c-0.63-2.27-1.26-4.54-1.89-6.81
			c16.56-2.56,33.16-4.93,49.68-7.72c16.9-2.86,33.73-6.13,50.58-9.22c244.72-44.91,481.1-115.52,702.56-231.01
			c103.19-53.81,198.96-118.49,280.67-202.42c3.53-3.63,7.46-6.86,12.03-11.02c21.9,20.08,42.96,39.9,64.56,59.11
			c112.53,100.07,244.78,166.71,381.76,225.35c182.06,77.93,372.57,126.53,566.39,163.5c30.78,5.87,62.05,9.18,92.23,16.86
			C2506.14,2347.65,2126.81,2264.11,1802.79,2005.23z"/>
		<path class="st3" d="M2536.13,1390.68c2.32-1,3.06-1.58,3.83-1.62c64.14-3.4,64.01-3.4,64.23,58.81
			c0.78,216.82,1.67,433.65,2.46,650.47c0.01,1.64-0.83,3.29-2.04,7.8c-21.79-5.18-43.87-9.83-65.45-16.17
			c-3.44-1.01-6.62-9.64-6.62-14.74c0.23-226.28,0.82-452.56,1.45-678.84C2533.99,1394.83,2535.12,1393.27,2536.13,1390.68z"/>
		<path class="st1" d="M1000.72,2107.18c0-164.19,0.18-324.7-0.08-485.22c-0.12-72.96-1.37-145.91-1.17-218.87
			c0.01-4.87,7.7-13.54,12.34-13.91c19.49-1.57,39.18-0.67,60.64-0.67c0,16.68-0.01,31.75,0,46.83
			c0.14,211.42,0.14,422.83,0.79,634.25c0.04,13.43-1.88,20.15-16.6,22.63C1038.38,2095.31,1020.67,2101.68,1000.72,2107.18z"/>
		<path class="st2" d="M1646.58,1121.31c0,22.1-0.02,42.47,0,62.84c0.25,180.47,0.68,360.94,0.24,541.4
			c-0.02,8.5-6.07,18.72-12.36,25.14c-17.95,18.3-37.47,35.06-59.25,55.06c0-12.08,0-22.55,0-33.01
			c-0.08-201.96-0.1-403.92-0.29-605.88c-0.04-47.4-0.31-47.45,49.38-46.89C1631.79,1120.05,1639.27,1120.85,1646.58,1121.31z"/>
		<path class="st2" d="M2032.26,1808.37c-25.38-22.92-48.22-42.96-70.14-63.97c-3.34-3.2-3.33-10.86-3.32-16.45
			c0.38-184.76,1.03-369.51,1.37-554.26c0.03-16.84-1.73-33.68-2.76-52.2c26.02,0,49.63,0,74.84,0
			C2032.26,1349.83,2032.26,1577.35,2032.26,1808.37z"/>
		<path class="st2" d="M1456.22,1900.21c-21,13.9-44.35,29.36-71.57,47.39c0-214.81,0-426.81,0-640.19c22.83,0,45.63,0,71.57,0
			C1456.22,1504.79,1456.22,1701.87,1456.22,1900.21z"/>
		<path class="st2" d="M2151.76,1307.35c23.52,0,47.14,0,71.11,0c0,212.53,0,423.59,0,639.37c-26.04-16.42-48.86-30.34-71-45.29
			c-3.09-2.09-3.95-9.21-3.92-13.99c1.12-144.41,2.59-288.82,3.74-433.24C2152.08,1406.3,2151.76,1358.39,2151.76,1307.35z"/>
		<path class="st1" d="M881.27,2135.8c-23.25,4.62-48.06,9.56-70.45,14.01c0-42.66,0.14-85.33-0.03-128
			c-0.53-131.64-1.31-263.28-1.28-394.93c0-5.26,6.87-14.74,11.11-15.07c20.27-1.6,40.73-0.72,60.65-0.72
			C881.27,1787.47,881.27,1960.74,881.27,2135.8z"/>
		<path class="st3" d="M2797.13,2150.37c-26.77-5.47-50.91-10.41-71.66-14.65c0-168.67,0.48-335.24-0.66-501.8
			c-0.13-19.01,4.36-23.55,22.1-23.56c47.13-0.03,46.94-0.68,46.89,45.21c-0.16,148.88-0.26,297.76-0.07,446.64
			C2793.75,2117.42,2795.83,2132.63,2797.13,2150.37z"/>
		<path class="st2" d="M2414.51,2042.63c-24.65-9.8-44.68-16.73-63.58-25.98c-4.88-2.38-8.79-12.03-8.79-18.34
			c-0.02-114.18,0.88-228.36,1.02-342.54c0.06-45.22-0.57-45.27,46.39-44.98c8.38,0.05,16.76,0.72,24.95,1.1
			C2414.51,1755,2414.51,1896.21,2414.51,2042.63z"/>
		<path class="st2" d="M1192.79,2043.01c0-13.03,0.01-22.28,0-31.54c-0.08-117.78,0.01-235.56-0.31-353.34
			c-0.13-47.51-0.52-47.5,47.25-47.3c7.62,0.03,15.24,0,26.12,0c-1.54,15.9-4.08,29.85-4.06,43.79
			c0.16,114.3,0.9,228.61,1.03,342.91c0.01,5.96-2.31,15.23-6.42,17.32C1236.86,2024.83,1216.34,2032.84,1192.79,2043.01z"/>
		<path class="st1" d="M686.86,1785.98c0,130.76,0,257.03,0,385.86c-23,4.21-45.36,8.3-70.74,12.94c0-14.02,0.01-25.74,0-37.45
			c-0.15-111.79-0.07-223.59-0.7-335.38c-0.1-17.91,4.38-27.8,24.52-26.21C655.1,1786.95,670.44,1785.98,686.86,1785.98z"/>
		<path class="st3" d="M2986.97,2184.09c-25.17-4.42-46.83-8.22-70.26-12.33c0-12.51,0-23.49,0-34.47
			c0.01-107.54,0.68-215.09-0.49-322.61c-0.25-22.61,5.49-30.04,28.63-29.17c43.27,1.63,43.07,0.3,43.02,45.38
			c-0.13,110.98,0,221.95-0.03,332.93C2987.82,2169.69,2987.34,2175.56,2986.97,2184.09z"/>
		<path class="st1" d="M422.65,2188.35c0-64.38,0-126.23,0-188.09c0-7.75,0.28-15.5,0.04-23.24c-1.42-46.36-1.46-46.36,44.42-46.3
			c8.47,0.01,16.94,0,28.32,0c0,15.95-0.06,30.13,0.01,44.31c0.34,64.52,0.42,129.04,1.34,193.55c0.18,12.69-2.74,19.91-16.51,19.81
			C461.51,2188.24,442.74,2188.35,422.65,2188.35z"/>
		<path class="st3" d="M3182.26,2188.71c-20.56,0-40.17,1.14-59.47-0.78c-5.02-0.5-12.96-10.52-13.01-16.24
			c-0.75-72.82-0.25-145.64-0.24-218.47c0-13.33,1.75-22.26,19.25-22.91c53.75-1.97,53.61-2.72,53.51,50.62
			C3182.17,2048.72,3182.26,2116.5,3182.26,2188.71z"/>
	</g>
	<path class="st3" d="M3297.04,2759.73c-10.91,0-20.38,0-30.34,0c0-104.62,0-208.88,0-314.2c8.92,0,17.71-0.07,26.49,0.03
		c5.02,0.05,3.57,4.06,3.57,6.73c0.07,36.59,0.02,73.17,0,109.76c0,7.62,0,15.25,0,23.17c44.54,0,88.18,0,132.68,0
		c0-46.62,0-92.65,0-139.67c9.39,0,17.96-0.23,26.49,0.24c1.36,0.07,3.53,3.22,3.63,5.04c0.43,7.43,0.22,14.9,0.22,22.36
		c-0.05,92.98-0.11,185.96-0.17,278.94c0,2.29,0,4.58,0,7.42c-10.18,0-19.78,0-30.28,0c0-48.37,0-96.46,0-144.9
		c-44.36,0-87.82,0-132.29,0C3297.04,2662.86,3297.04,2710.92,3297.04,2759.73z"/>
	<path class="st3" d="M2611.05,2445.65c2.9,0,5.19,0,7.48,0c55.89-0.04,111.77,0.01,167.66-0.22c6.03-0.02,9,1,8.28,7.94
		c-0.69,6.64-0.15,13.41-0.15,21.12c-51.15,0-101.73,0-152.77,0c0,37.45,0,73.89,0,111.05c46.25,0,92.27,0,138.85,0
		c0,9.63,0,18.58,0,28.51c-46.07,0-92.23,0-138.81,0c0,39.31,0,77.63,0,116.9c52.48,0,104.72,0,157.4,0c0,9.93,0,18.93,0,28.62
		c-62.45,0-124.92,0-187.95,0C2611.05,2655.23,2611.05,2550.99,2611.05,2445.65z"/>
	<path class="st3" d="M3143.49,2487.69c-7.42,6.99-14.33,13.51-21.81,20.57c-2.41-2.67-4.61-4.93-6.62-7.35
		c-35.75-43.07-99.29-41.56-132.81,3.27c-16.21,21.68-23.98,46.65-27.12,73.16c-4.4,37.08-0.62,73.19,16.18,106.93
		c13.31,26.73,33.51,45.78,64.33,50.56c31.6,4.89,57.73-5.25,78.5-29.45c2.56-2.98,5.02-6.06,8.05-9.72
		c7.52,6.57,14.78,12.9,22.51,19.65c-15.74,21.02-33.92,38.35-59.61,45.18c-39.16,10.41-76.2,6.46-109.09-19.27
		c-17.11-13.38-29.37-30.82-37.14-50.79c-25.08-64.47-24.97-128.33,8.27-190.23c23.57-43.9,70.62-66.03,119.94-59
		C3099.22,2445.78,3123.78,2461.76,3143.49,2487.69z"/>
	<path class="st3" d="M2368.64,2474.71c-30.37,0-59.81,0-89.69,0c0-9.76,0-18.74,0-28.43c69.95,0,139.82,0,210.09,0
		c0,9.27,0,18.25,0,28c-2.56,0.13-5.02,0.36-7.48,0.36c-24.68,0.03-49.36,0.22-74.03-0.13c-6.35-0.09-8.24,1.63-8.22,8.14
		c0.24,88.99,0.19,177.98,0.21,266.98c0,3.2,0,6.4,0,9.99c-10.6,0-20.27,0-30.89,0C2368.64,2664.79,2368.64,2570.15,2368.64,2474.71
		z"/>
	<path class="st2" d="M1046.6,2759.91c-8.98,0-17.3,0.3-25.56-0.22c-1.96-0.12-4.16-2.69-5.55-4.63
		c-34.87-48.9-69.64-97.89-104.45-146.83c-23.34-32.82-46.73-65.6-70.11-98.39c-0.93-1.31-2.01-2.51-4.04-5.02
		c0,85.69,0,169.98,0,254.72c-10.46,0-20.11,0-30.3,0c0-104.4,0-208.63,0-313.71c8.96,0,17.77-0.34,26.51,0.24
		c2.11,0.14,4.44,3.02,5.97,5.14c29.37,40.82,58.66,81.7,87.92,122.61c27.63,38.63,55.19,77.31,82.79,115.95
		c1.4,1.97,2.95,3.83,5.92,5.15c0-82.76,0-165.52,0-249.27c9.57,0,18.38-0.26,27.15,0.27c1.33,0.08,3.47,3.77,3.51,5.81
		c0.29,16.07,0.14,32.15,0.15,48.23c0.03,84.11,0.07,168.22,0.1,252.33C1046.6,2754.55,1046.6,2756.82,1046.6,2759.91z"/>
	<path class="st2" d="M1932.31,2760.77c0-4.37,0-6.88,0-9.4c0.01-98.78,0.02-197.57,0.04-296.35c0-9.34,0.01-9.42,9.52-9.33
		c31.42,0.3,62.96-0.91,94.23,1.38c49.93,3.65,85.92,28.9,105.98,75.53c8.37,19.46,12.71,39.89,14.11,60.93
		c2.47,37-0.64,73.28-17.85,106.84c-20.5,40-53.22,64.31-98.22,67.86C2004.74,2761.02,1969.04,2760.05,1932.31,2760.77z
		 M1963.48,2474.78c0,86.48,0,170.91,0,254.89c23.29,0,46.26,1.97,68.77-0.42c43.34-4.6,70.87-30.48,84.51-71.07
		c8.26-24.58,9.84-50.2,7.2-75.96c-1.88-18.36-5.73-36.22-14.08-52.99c-14.99-30.1-39.11-48.11-72.18-51.71
		C2013.32,2474.86,1988.56,2475.58,1963.48,2474.78z"/>
	<path class="st2" d="M671.09,2446.47c0,8.34,0.28,16.69-0.26,24.99c-0.09,1.45-3.56,3.76-5.53,3.83
		c-11.16,0.4-22.35,0.24-33.52,0.25c-26.78,0.03-53.56-0.15-80.33,0.17c-8.32,0.1-16.85,0.62-24.9,2.53
		c-17,4.04-28.01,15.14-30.4,32.53c-1.6,11.62-1.95,23.77-0.5,35.39c2.73,22.02,18.29,36,40.51,37.2c19.5,1.05,39.09,0.47,58.6,1.46
		c12.01,0.61,24.25,1.58,35.84,4.52c29.34,7.43,46.55,26.94,51.81,56.7c3.53,19.99,2.91,40-2.78,59.52
		c-8.87,30.46-30.25,47.07-60.73,52.66c-7.28,1.33-14.8,1.78-22.21,1.81c-40.98,0.16-81.96,0.06-122.94,0.03
		c-2.05,0-4.1-0.21-6.62-0.34c0-9.52,0-18.68,0-28.78c3,0,5.72,0,8.45,0c39.35-0.05,78.7-0.02,118.05-0.21
		c6.25-0.03,12.58-0.54,18.74-1.58c19.04-3.22,31.59-14.28,36.85-32.83c4.05-14.27,4.77-28.94,2.03-43.59
		c-4.07-21.76-15.97-34.39-38.02-36.67c-19.6-2.03-39.5-0.96-59.24-1.94c-12.02-0.59-24.21-1.43-35.93-3.98
		c-30.34-6.6-47.7-26.2-53.44-56.51c-3.66-19.34-2.89-38.55,2.45-57.42c8.1-28.63,32.83-48.24,65.8-49.32
		c44.89-1.47,89.84-0.94,134.77-1.24C668.51,2445.67,669.39,2446.07,671.09,2446.47z"/>
	<path class="st2" d="M1168.61,2760.01c3.74-10.73,7.1-20.57,10.59-30.37c32.65-91.62,65.4-183.2,97.81-274.9
		c2.51-7.09,5.69-9.6,13.3-9.26c18.55,0.83,18.89,0.3,25.6,17.79c21.34,55.61,42.4,111.33,63.61,167
		c16.07,42.18,32.2,84.35,48.28,126.52c0.24,0.63,0.28,1.32,0.64,3.09c-11.05,0-21.82,0.27-32.55-0.29
		c-1.61-0.09-3.53-3.89-4.45-6.3c-18.2-47.59-36.38-95.2-54.34-142.88c-13.53-35.92-26.76-71.96-40.14-107.94
		c-0.24-0.63-0.72-1.18-1.61-2.61c-1.03,2.3-1.95,4.01-2.59,5.81c-28.77,82.14-57.57,164.26-86.15,246.46
		c-2.06,5.93-4.66,8.62-11.34,8.07C1186.77,2759.47,1178.17,2760.01,1168.61,2760.01z"/>
	<path class="st2" d="M1810.3,2760.01c-11.36,0-21.76,0.27-32.12-0.27c-1.73-0.09-3.94-3.46-4.82-5.74
		c-15.48-40.18-30.8-80.41-46.11-120.66c-16.3-42.85-32.55-85.72-48.84-128.57c-0.49-1.28-1.1-2.5-2.1-4.73
		c-1.06,2.24-1.91,3.67-2.44,5.21c-28.91,83.08-57.83,166.17-86.6,249.3c-1.46,4.22-3.43,5.79-7.95,5.61
		c-9.27-0.38-18.56-0.11-28.87-0.11c3.25-9.39,6.15-17.9,9.15-26.37c32.67-92.37,65.3-184.76,98.11-277.09
		c4.57-12.86,1.68-10.94,15.39-10.95c17.29-0.01,17.22,0.13,23.32,16.05c37.02,96.73,74.08,193.45,111.11,290.17
		C1808.41,2754.2,1809.14,2756.59,1810.3,2760.01z"/>
	<g>
		<path class="st2" d="M143,2446.09c66.48,0,131.57,0,197.12,0c0,9.61,0,18.82,0,28.76c-65.44,0-130.88,0-197.12,0
			c0-2.68,0-4.96,0-7.24C143,2460.66,143,2453.71,143,2446.09z"/>
		<path class="st2" d="M340.35,2731.4c0,9.69,0,18.69,0,28.18c-65.61,0-130.85,0-196.67,0c0-9.32,0-18.47,0-28.18
			C209.22,2731.4,274.49,2731.4,340.35,2731.4z"/>
		<path class="st2" d="M143.71,2591.78c65.61,0,130.88,0,196.56,0c0,9.31,0,18.29,0,27.93c-65.46,0-130.71,0-196.56,0
			C143.71,2610.6,143.71,2601.48,143.71,2591.78z"/>
	</g>
</g>
</svg>
