<svg xmlns="http://www.w3.org/2000/svg" viewBox="0 0 200 220" fill="none">
  <!-- Teardrop / water drop outline -->
  <path d="M100 10 C100 10 170 80 170 140 C170 178 138 205 100 205 C62 205 30 178 30 140 C30 80 100 10 100 10Z"
    fill="white" stroke="#7B1C2A" stroke-width="6"/>
  <!-- Inner decorative path -->
  <path d="M100 30 C100 30 155 88 155 140 C155 170 130 192 100 192 C70 192 45 170 45 140 C45 88 100 30 100 30Z"
    fill="none" stroke="#7B1C2A" stroke-width="2" opacity="0.4"/>
  <!-- Arabic text المندي -->
  <text x="100" y="115" text-anchor="middle" 
    font-family="'Tajawal', 'Cairo', serif"
    font-size="44" font-weight="900"
    fill="#7B1C2A"
    letter-spacing="-1">المندي</text>
  <!-- Arabic text مطعم -->
  <text x="100" y="158" text-anchor="middle"
    font-family="'Tajawal', 'Cairo', serif"
    font-size="22" font-weight="700"
    fill="#7B1C2A"
    letter-spacing="2">مطعم</text>
  <!-- Registered trademark R -->
  <circle cx="155" cy="30" r="10" fill="none" stroke="#7B1C2A" stroke-width="2"/>
  <text x="155" y="35" text-anchor="middle"
    font-family="Arial" font-size="12" font-weight="bold"
    fill="#7B1C2A">R</text>
</svg>
